{
	"asset":{
		"generator":"Khronos glTF Blender I/O v3.5.30",
		"version":"2.0"
	},
	"extensionsUsed":[
		"KHR_materials_transmission",
		"KHR_materials_specular"
	],
	"scene":0,
	"scenes":[
		{
			"name":"Scene",
			"nodes":[
				0
			]
		}
	],
	"nodes":[
		{
			"mesh":0,
			"name":"TV",
			"rotation":[
				0.7071068286895752,
				0,
				0,
				0.7071068286895752
			]
		}
	],
	"materials":[
		{
			"doubleSided":true,
			"extensions":{
				"KHR_materials_transmission":{
					"transmissionFactor":1
				},
				"KHR_materials_specular":{
					"specularColorFactor":[
						1,
						1,
						1
					]
				}
			},
			"name":"07___Default",
			"pbrMetallicRoughness":{
				"baseColorTexture":{
					"index":0
				},
				"metallicFactor":0,
				"roughnessFactor":0.8999999761581421
			}
		},
		{
			"doubleSided":true,
			"extensions":{
				"KHR_materials_transmission":{
					"transmissionFactor":1
				},
				"KHR_materials_specular":{
					"specularColorFactor":[
						1,
						1,
						1
					]
				}
			},
			"name":"09___Default",
			"pbrMetallicRoughness":{
				"baseColorTexture":{
					"index":1
				},
				"metallicFactor":0,
				"roughnessFactor":0.8999999761581421
			}
		},
		{
			"doubleSided":true,
			"extensions":{
				"KHR_materials_transmission":{
					"transmissionFactor":1
				},
				"KHR_materials_specular":{
					"specularColorFactor":[
						1,
						1,
						1
					]
				}
			},
			"name":"08___Default",
			"pbrMetallicRoughness":{
				"baseColorTexture":{
					"index":2
				},
				"metallicFactor":0,
				"roughnessFactor":0.8999999761581421
			}
		}
	],
	"meshes":[
		{
			"name":"TV",
			"primitives":[
				{
					"attributes":{
						"POSITION":0,
						"TEXCOORD_0":1,
						"NORMAL":2
					},
					"indices":3,
					"material":0
				},
				{
					"attributes":{
						"POSITION":4,
						"TEXCOORD_0":5,
						"NORMAL":6
					},
					"indices":7,
					"material":1
				},
				{
					"attributes":{
						"POSITION":8,
						"TEXCOORD_0":9,
						"NORMAL":10
					},
					"indices":11,
					"material":2
				}
			]
		}
	],
	"textures":[
		{
			"sampler":0,
			"source":0
		},
		{
			"sampler":0,
			"source":1
		},
		{
			"sampler":0,
			"source":2
		}
	],
	"images":[
		{
			"bufferView":4,
			"mimeType":"image/png",
			"name":"tvmoderate-tv0_lifo_512x512"
		},
		{
			"bufferView":9,
			"mimeType":"image/png",
			"name":"glass"
		},
		{
			"bufferView":14,
			"mimeType":"image/png",
			"name":"tvmoderate-screenoff0_lifo_128x128"
		}
	],
	"accessors":[
		{
			"bufferView":0,
			"componentType":5126,
			"count":1334,
			"max":[
				0.35569998621940613,
				0.18569999933242798,
				0.00839999970048666
			],
			"min":[
				-0.3889000117778778,
				-0.4740999937057495,
				-1.2132999897003174
			],
			"type":"VEC3"
		},
		{
			"bufferView":1,
			"componentType":5126,
			"count":1334,
			"type":"VEC2"
		},
		{
			"bufferView":2,
			"componentType":5126,
			"count":1334,
			"type":"VEC3"
		},
		{
			"bufferView":3,
			"componentType":5123,
			"count":2826,
			"type":"SCALAR"
		},
		{
			"bufferView":5,
			"componentType":5126,
			"count":136,
			"max":[
				0.3824000060558319,
				0.22779999673366547,
				-0.08110000193119049
			],
			"min":[
				-0.4178999960422516,
				-0.3578999936580658,
				-0.5763999819755554
			],
			"type":"VEC3"
		},
		{
			"bufferView":6,
			"componentType":5126,
			"count":136,
			"type":"VEC2"
		},
		{
			"bufferView":7,
			"componentType":5126,
			"count":136,
			"type":"VEC3"
		},
		{
			"bufferView":8,
			"componentType":5123,
			"count":288,
			"type":"SCALAR"
		},
		{
			"bufferView":10,
			"componentType":5126,
			"count":30,
			"max":[
				0.2685999870300293,
				0.0414000004529953,
				-0.7368999719619751
			],
			"min":[
				-0.27140000462532043,
				0.008799999952316284,
				-1.155900001525879
			],
			"type":"VEC3"
		},
		{
			"bufferView":11,
			"componentType":5126,
			"count":30,
			"type":"VEC2"
		},
		{
			"bufferView":12,
			"componentType":5126,
			"count":30,
			"type":"VEC3"
		},
		{
			"bufferView":13,
			"componentType":5123,
			"count":120,
			"type":"SCALAR"
		}
	],
	"bufferViews":[
		{
			"buffer":0,
			"byteLength":16008,
			"byteOffset":0,
			"target":34962
		},
		{
			"buffer":0,
			"byteLength":10672,
			"byteOffset":16008,
			"target":34962
		},
		{
			"buffer":0,
			"byteLength":16008,
			"byteOffset":26680,
			"target":34962
		},
		{
			"buffer":0,
			"byteLength":5652,
			"byteOffset":42688,
			"target":34963
		},
		{
			"buffer":0,
			"byteLength":175550,
			"byteOffset":48340
		},
		{
			"buffer":0,
			"byteLength":1632,
			"byteOffset":223892,
			"target":34962
		},
		{
			"buffer":0,
			"byteLength":1088,
			"byteOffset":225524,
			"target":34962
		},
		{
			"buffer":0,
			"byteLength":1632,
			"byteOffset":226612,
			"target":34962
		},
		{
			"buffer":0,
			"byteLength":576,
			"byteOffset":228244,
			"target":34963
		},
		{
			"buffer":0,
			"byteLength":585,
			"byteOffset":228820
		},
		{
			"buffer":0,
			"byteLength":360,
			"byteOffset":229408,
			"target":34962
		},
		{
			"buffer":0,
			"byteLength":240,
			"byteOffset":229768,
			"target":34962
		},
		{
			"buffer":0,
			"byteLength":360,
			"byteOffset":230008,
			"target":34962
		},
		{
			"buffer":0,
			"byteLength":240,
			"byteOffset":230368,
			"target":34963
		},
		{
			"buffer":0,
			"byteLength":5456,
			"byteOffset":230608
		}
	],
	"samplers":[
		{
			"magFilter":9729,
			"minFilter":9987
		}
	],
	"buffers":[
		{
			"byteLength":236064,
			"uri":"data:application/octet-stream;base64,"
		}
	]
}
