{
	"asset":{
		"generator":"Khronos glTF Blender I/O v3.5.30",
		"version":"2.0"
	},
	"scene":0,
	"scenes":[
		{
			"name":"Scene",
			"nodes":[
				0,
				1,
				2,
				3,
				4
			]
		}
	],
	"nodes":[
		{
			"mesh":0,
			"name":"polygon0.199",
			"rotation":[
				0.7071068286895752,
				0,
				0,
				0.7071068286895752
			]
		},
		{
			"mesh":1,
			"name":"polygon1.196",
			"rotation":[
				0.7071068286895752,
				0,
				0,
				0.7071068286895752
			]
		},
		{
			"mesh":2,
			"name":"polygon2.168",
			"rotation":[
				0.7071068286895752,
				0,
				0,
				0.7071068286895752
			]
		},
		{
			"mesh":3,
			"name":"polygon3.130",
			"rotation":[
				0.7071068286895752,
				0,
				0,
				0.7071068286895752
			]
		},
		{
			"mesh":4,
			"name":"polygon4.110",
			"rotation":[
				0.7071068286895752,
				0,
				0,
				0.7071068286895752
			]
		}
	],
	"materials":[
		{
			"alphaMode":"BLEND",
			"doubleSided":true,
			"name":"Material1368",
			"pbrMetallicRoughness":{
				"baseColorTexture":{
					"index":0
				},
				"metallicFactor":0,
				"roughnessFactor":0.6900347471237183
			}
		},
		{
			"alphaMode":"BLEND",
			"doubleSided":true,
			"name":"Material1322.001",
			"pbrMetallicRoughness":{
				"baseColorTexture":{
					"index":1
				},
				"metallicFactor":0,
				"roughnessFactor":0.6900347471237183
			}
		},
		{
			"alphaMode":"BLEND",
			"doubleSided":true,
			"name":"Material1318",
			"pbrMetallicRoughness":{
				"baseColorTexture":{
					"index":2
				},
				"metallicFactor":0,
				"roughnessFactor":0.6900347471237183
			}
		},
		{
			"alphaMode":"BLEND",
			"doubleSided":true,
			"name":"Material1321",
			"pbrMetallicRoughness":{
				"baseColorTexture":{
					"index":3
				},
				"metallicFactor":0,
				"roughnessFactor":0.6900347471237183
			}
		},
		{
			"alphaMode":"BLEND",
			"doubleSided":true,
			"name":"Material1319.001",
			"pbrMetallicRoughness":{
				"baseColorTexture":{
					"index":4
				},
				"metallicFactor":0,
				"roughnessFactor":0.6900347471237183
			}
		}
	],
	"meshes":[
		{
			"name":"polygon0.199",
			"primitives":[
				{
					"attributes":{
						"POSITION":0,
						"TEXCOORD_0":1,
						"NORMAL":2
					},
					"indices":3,
					"material":0
				}
			]
		},
		{
			"name":"polygon1.196",
			"primitives":[
				{
					"attributes":{
						"POSITION":4,
						"TEXCOORD_0":5,
						"NORMAL":6
					},
					"indices":7,
					"material":1
				}
			]
		},
		{
			"name":"polygon2.168",
			"primitives":[
				{
					"attributes":{
						"POSITION":8,
						"TEXCOORD_0":9,
						"NORMAL":10
					},
					"indices":11,
					"material":2
				}
			]
		},
		{
			"name":"polygon3.130",
			"primitives":[
				{
					"attributes":{
						"POSITION":12,
						"TEXCOORD_0":13,
						"NORMAL":14
					},
					"indices":15,
					"material":3
				}
			]
		},
		{
			"name":"polygon4.110",
			"primitives":[
				{
					"attributes":{
						"POSITION":16,
						"TEXCOORD_0":17,
						"NORMAL":18
					},
					"indices":19,
					"material":4
				}
			]
		}
	],
	"textures":[
		{
			"sampler":0,
			"source":0
		},
		{
			"sampler":0,
			"source":1
		},
		{
			"sampler":0,
			"source":2
		},
		{
			"sampler":0,
			"source":3
		},
		{
			"sampler":0,
			"source":4
		}
	],
	"images":[
		{
			"mimeType":"image/png",
			"name":"Material1368",
			"uri":"Material1368.png"
		},
		{
			"mimeType":"image/png",
			"name":"Material1322",
			"uri":"Material1322.png"
		},
		{
			"mimeType":"image/png",
			"name":"Material1318",
			"uri":"Material1318.png"
		},
		{
			"mimeType":"image/png",
			"name":"Material1321",
			"uri":"Material1321.png"
		},
		{
			"mimeType":"image/png",
			"name":"Material1319",
			"uri":"Material1319.png"
		}
	],
	"accessors":[
		{
			"bufferView":0,
			"componentType":5126,
			"count":4,
			"max":[
				1.1999510526657104,
				1,
				-0.3000490069389343
			],
			"min":[
				-1.1999510526657104,
				1,
				-2.300049066543579
			],
			"type":"VEC3"
		},
		{
			"bufferView":1,
			"componentType":5126,
			"count":4,
			"type":"VEC2"
		},
		{
			"bufferView":2,
			"componentType":5126,
			"count":4,
			"type":"VEC3"
		},
		{
			"bufferView":3,
			"componentType":5123,
			"count":6,
			"type":"SCALAR"
		},
		{
			"bufferView":4,
			"componentType":5126,
			"count":8,
			"max":[
				1.5,
				0,
				-1.5
			],
			"min":[
				-1.5,
				-1,
				-2.5
			],
			"type":"VEC3"
		},
		{
			"bufferView":5,
			"componentType":5126,
			"count":8,
			"type":"VEC2"
		},
		{
			"bufferView":6,
			"componentType":5126,
			"count":8,
			"type":"VEC3"
		},
		{
			"bufferView":7,
			"componentType":5123,
			"count":12,
			"type":"SCALAR"
		},
		{
			"bufferView":8,
			"componentType":5126,
			"count":12,
			"max":[
				1.5,
				1,
				0
			],
			"min":[
				-1.5,
				0,
				-2.5
			],
			"type":"VEC3"
		},
		{
			"bufferView":9,
			"componentType":5126,
			"count":12,
			"type":"VEC2"
		},
		{
			"bufferView":10,
			"componentType":5126,
			"count":12,
			"type":"VEC3"
		},
		{
			"bufferView":11,
			"componentType":5123,
			"count":18,
			"type":"SCALAR"
		},
		{
			"bufferView":12,
			"componentType":5126,
			"count":16,
			"max":[
				1.5,
				0,
				0
			],
			"min":[
				-1.5,
				-1,
				-2.5
			],
			"type":"VEC3"
		},
		{
			"bufferView":13,
			"componentType":5126,
			"count":16,
			"type":"VEC2"
		},
		{
			"bufferView":14,
			"componentType":5126,
			"count":16,
			"type":"VEC3"
		},
		{
			"bufferView":15,
			"componentType":5123,
			"count":24,
			"type":"SCALAR"
		},
		{
			"bufferView":16,
			"componentType":5126,
			"count":14,
			"max":[
				1.5,
				1,
				0
			],
			"min":[
				-1.5,
				-1,
				-2.5
			],
			"type":"VEC3"
		},
		{
			"bufferView":17,
			"componentType":5126,
			"count":14,
			"type":"VEC2"
		},
		{
			"bufferView":18,
			"componentType":5126,
			"count":14,
			"type":"VEC3"
		},
		{
			"bufferView":19,
			"componentType":5123,
			"count":30,
			"type":"SCALAR"
		}
	],
	"bufferViews":[
		{
			"buffer":0,
			"byteLength":48,
			"byteOffset":0,
			"target":34962
		},
		{
			"buffer":0,
			"byteLength":32,
			"byteOffset":48,
			"target":34962
		},
		{
			"buffer":0,
			"byteLength":48,
			"byteOffset":80,
			"target":34962
		},
		{
			"buffer":0,
			"byteLength":12,
			"byteOffset":128,
			"target":34963
		},
		{
			"buffer":0,
			"byteLength":96,
			"byteOffset":140,
			"target":34962
		},
		{
			"buffer":0,
			"byteLength":64,
			"byteOffset":236,
			"target":34962
		},
		{
			"buffer":0,
			"byteLength":96,
			"byteOffset":300,
			"target":34962
		},
		{
			"buffer":0,
			"byteLength":24,
			"byteOffset":396,
			"target":34963
		},
		{
			"buffer":0,
			"byteLength":144,
			"byteOffset":420,
			"target":34962
		},
		{
			"buffer":0,
			"byteLength":96,
			"byteOffset":564,
			"target":34962
		},
		{
			"buffer":0,
			"byteLength":144,
			"byteOffset":660,
			"target":34962
		},
		{
			"buffer":0,
			"byteLength":36,
			"byteOffset":804,
			"target":34963
		},
		{
			"buffer":0,
			"byteLength":192,
			"byteOffset":840,
			"target":34962
		},
		{
			"buffer":0,
			"byteLength":128,
			"byteOffset":1032,
			"target":34962
		},
		{
			"buffer":0,
			"byteLength":192,
			"byteOffset":1160,
			"target":34962
		},
		{
			"buffer":0,
			"byteLength":48,
			"byteOffset":1352,
			"target":34963
		},
		{
			"buffer":0,
			"byteLength":168,
			"byteOffset":1400,
			"target":34962
		},
		{
			"buffer":0,
			"byteLength":112,
			"byteOffset":1568,
			"target":34962
		},
		{
			"buffer":0,
			"byteLength":168,
			"byteOffset":1680,
			"target":34962
		},
		{
			"buffer":0,
			"byteLength":60,
			"byteOffset":1848,
			"target":34963
		}
	],
	"samplers":[
		{
			"magFilter":9729,
			"minFilter":9987
		}
	],
	"buffers":[
		{
			"byteLength":1908,
			"uri":"TV-Set.bin"
		}
	]
}
