{
	"asset":{
		"generator":"Khronos glTF Blender I/O v3.5.30",
		"version":"2.0"
	},
	"extensionsUsed":[
		"KHR_materials_transmission",
		"KHR_materials_specular"
	],
	"scene":0,
	"scenes":[
		{
			"name":"Scene",
			"nodes":[
				0
			]
		}
	],
	"nodes":[
		{
			"mesh":0,
			"name":"subcouch",
			"rotation":[
				0.7071068286895752,
				0,
				0,
				0.7071068286895752
			]
		}
	],
	"materials":[
		{
			"doubleSided":true,
			"extensions":{
				"KHR_materials_transmission":{
					"transmissionFactor":1
				},
				"KHR_materials_specular":{
					"specularColorFactor":[
						1,
						1,
						1
					]
				}
			},
			"name":"_subcouchMaterial_000001",
			"normalTexture":{
				"index":0,
				"scale":0
			},
			"pbrMetallicRoughness":{
				"baseColorTexture":{
					"index":1
				},
				"metallicFactor":0,
				"roughnessFactor":0.8999999761581421
			}
		}
	],
	"meshes":[
		{
			"name":"subcouch",
			"primitives":[
				{
					"attributes":{
						"POSITION":0,
						"TEXCOORD_0":1,
						"NORMAL":2
					},
					"indices":3,
					"material":0
				}
			]
		}
	],
	"textures":[
		{
			"sampler":0,
			"source":0
		},
		{
			"sampler":0,
			"source":1
		}
	],
	"images":[
		{
			"mimeType":"image/png",
			"name":"suburbancouch_n",
			"uri":"suburbancouch_n.png"
		},
		{
			"mimeType":"image/png",
			"name":"suburbancouch",
			"uri":"suburbancouch.png"
		}
	],
	"accessors":[
		{
			"bufferView":0,
			"componentType":5126,
			"count":927,
			"max":[
				80.28880310058594,
				35.22629928588867,
				33.66379928588867
			],
			"min":[
				-80.28880310058594,
				-35.22629928588867,
				-33.66379928588867
			],
			"type":"VEC3"
		},
		{
			"bufferView":1,
			"componentType":5126,
			"count":927,
			"type":"VEC2"
		},
		{
			"bufferView":2,
			"componentType":5126,
			"count":927,
			"type":"VEC3"
		},
		{
			"bufferView":3,
			"componentType":5123,
			"count":3030,
			"type":"SCALAR"
		}
	],
	"bufferViews":[
		{
			"buffer":0,
			"byteLength":11124,
			"byteOffset":0,
			"target":34962
		},
		{
			"buffer":0,
			"byteLength":7416,
			"byteOffset":11124,
			"target":34962
		},
		{
			"buffer":0,
			"byteLength":11124,
			"byteOffset":18540,
			"target":34962
		},
		{
			"buffer":0,
			"byteLength":6060,
			"byteOffset":29664,
			"target":34963
		}
	],
	"samplers":[
		{
			"magFilter":9729,
			"minFilter":9987
		}
	],
	"buffers":[
		{
			"byteLength":35724,
			"uri":"Couch.bin"
		}
	]
}
